<?xml version="1.0" encoding="UTF-8"?>
<svg width="200" height="200" viewBox="0 0 200 200" version="1.1" xmlns="http://www.w3.org/2000/svg">
    <defs>
        <linearGradient id="skillzGradient" x1="0%" y1="0%" x2="100%" y2="100%">
            <stop offset="0%" style="stop-color:#7B61FF"/>
            <stop offset="100%" style="stop-color:#9C89FF"/>
        </linearGradient>
    </defs>
    <g fill="none" fill-rule="evenodd">
        <rect width="200" height="200" fill="none"/>
        <g transform="translate(40, 60)">
            <!-- S -->
            <path d="M0,20 C0,10 10,0 25,0 C40,0 50,10 50,20 L30,20 C30,15 28,12 25,12 C22,12 20,15 20,18 C20,25 50,30 50,50 C50,60 40,70 25,70 C10,70 0,60 0,50 L20,50 C20,55 22,58 25,58 C28,58 30,55 30,52 C30,45 0,40 0,20" 
                  fill="url(#skillzGradient)"/>
            <!-- Up Arrow -->
            <g transform="translate(70, 0)">
                <path d="M30,70 L30,20 L10,40 L0,30 L30,0 L60,30 L50,40 L30,20" 
                      fill="url(#skillzGradient)"/>
            </g>
        </g>
    </g>
</svg>
